# xmcd CD database file
# Copyright (C) 1993-1998 Ti Kan
#
# Track frame offsets:
# 150
# 26936
# 38442
# 57943
# 78287
# 95807
# 112813
# 126817
# 136288
# 160214
# 192895
#
# Disc length: 2758 seconds
#
# Revision: 0
# Processed by: cddbd v1.4b41PL1 Copyright (c) Steve Scherf et al.
# Submitted via: inCDius 1.1b7
#
DISCID=8a0ac40b
DTITLE=Michelle Shocked and the Anointed Earls - Good News
DYEAR=1900
DGENRE=
TTITLE0=Good News
TTITLE1=Can't Take My Joy
TTITLE2=Forgive To Forget
TTITLE3=Little Billie
TTITLE4=What Can I Say?
TTITLE5=Why Do I Get The Feeling?
TTITLE6=No Wonder
TTITLE7=You Take The Cake
TTITLE8=Tabloid
TTITLE9=Crying Shame
TTITLE10=bonus track
EXTD=1998 Mood Swing Productions\nLimited Edition CD
EXTT0=
EXTT1=
EXTT2=
EXTT3=
EXTT4=
EXTT5=
EXTT6=
EXTT7=
EXTT8=
EXTT9=
EXTT10=
PLAYORDER=
